<svg width="340" height="340" xmlns:xlink="http://www.w3.org/1999/xlink" xmlns="http://www.w3.org/2000/svg"><defs><filter x="-.057" y="-.356" width="1.114" height="2.007" filterUnits="objectBoundingBox" id="b"><feOffset dy="8" in="SourceAlpha" result="shadowOffsetOuter1"/><feGaussianBlur stdDeviation="4" in="shadowOffsetOuter1" result="shadowBlurOuter1"/><feColorMatrix values="0 0 0 0 0 0 0 0 0 0 0 0 0 0 0 0 0 0 0.0568181818 0" in="shadowBlurOuter1"/></filter><filter x="-.068" y="-.384" width="1.135" height="2.088" filterUnits="objectBoundingBox" id="d"><feOffset dy="8" in="SourceAlpha" result="shadowOffsetOuter1"/><feGaussianBlur stdDeviation="4" in="shadowOffsetOuter1" result="shadowBlurOuter1"/><feColorMatrix values="0 0 0 0 0 0 0 0 0 0 0 0 0 0 0 0 0 0 0.0568181818 0" in="shadowBlurOuter1"/></filter><filter x="-.091" y="-.384" width="1.183" height="2.088" filterUnits="objectBoundingBox" id="f"><feOffset dy="8" in="SourceAlpha" result="shadowOffsetOuter1"/><feGaussianBlur stdDeviation="4" in="shadowOffsetOuter1" result="shadowBlurOuter1"/><feColorMatrix values="0 0 0 0 0 0 0 0 0 0 0 0 0 0 0 0 0 0 0.0568181818 0" in="shadowBlurOuter1"/></filter><rect id="c" x="42" y="167" width="168" height="27" rx="13.5"/><rect id="e" x="41" y="110" width="142" height="25" rx="12.5"/><rect id="g" x="41" y="226" width="105" height="25" rx="12.5"/><linearGradient x1="170" y1="-181.282" x2="170" y2="372.825" id="a" gradientUnits="userSpaceOnUse"><stop stop-color="#65D09B" offset="0%" style="stop-color:#28497c;stop-opacity:1"/><stop stop-color="#4DB38E" offset="100%" style="stop-color:#899ab9;stop-opacity:1"/></linearGradient></defs><rect fill="url(#a)" width="340" height="340" rx="70" style="fill:url(#a);fill-rule:evenodd;stroke:none;stroke-width:1"/><path d="M237.612 138.158a7.402 7.402 0 0 0-10.447 0 7.35 7.35 0 0 0 0 10.419c7.775 7.752 12.058 18.024 12.058 28.922s-4.283 21.17-12.058 28.926a7.348 7.348 0 0 0 0 10.417 7.375 7.375 0 0 0 5.224 2.158c1.888 0 3.78-.72 5.223-2.158C248.18 206.305 254 192.334 254 177.499c0-14.834-5.82-28.804-16.388-39.341z" fill-opacity=".2" opacity=".754" style="stroke:none;stroke-width:1;fill:#fff;fill-opacity:.34145841"/><path d="M267.333 113.159a7.123 7.123 0 0 0-10.216 0c-2.823 2.88-2.823 7.55 0 10.428 28.587 29.176 28.587 76.65 0 105.827-2.823 2.878-2.823 7.548 0 10.426a7.126 7.126 0 0 0 5.108 2.16 7.12 7.12 0 0 0 5.108-2.163c34.223-34.924 34.223-91.753 0-126.678z" fill-opacity=".251" fill="#131514" opacity=".754" style="stroke:none;stroke-width:1;fill:#fff;fill-opacity:.34145841"/><g style="fill:none;fill-rule:evenodd;stroke:none;stroke-width:1"><use fill="#000" filter="url(#b)" xlink:href="#c" width="100%" height="100%"/><use fill="#fff" xlink:href="#c" width="100%" height="100%"/></g><g style="fill:none;fill-rule:evenodd;stroke:none;stroke-width:1"><use fill="#000" filter="url(#d)" xlink:href="#e" width="100%" height="100%"/><use fill="#fff" xlink:href="#e" width="100%" height="100%"/></g><g style="fill:none;fill-rule:evenodd;stroke:none;stroke-width:1"><use fill="#000" filter="url(#f)" xlink:href="#g" width="100%" height="100%"/><use fill="#fff" xlink:href="#g" width="100%" height="100%"/></g></svg>