<svg xmlns="http://www.w3.org/2000/svg" fill="#cb1800" shape-rendering="geometricPrecision" height="16" width="16"><path d="M5.971 12.849l1.54-.579-1.133-1.008zm4.751-7.577V2.403H-.001V15.94h10.723V9.75l3.569-4.011-2.221-1.982zM9.618 6.514L6.74 9.748l2.221 1.983.657-.739v3.843H1.1V3.505h8.518zm5.884-4.373a1.488 1.488 0 0 0-2.096.113l-.792.889 2.222 1.985.796-.893-.002-.001a1.49 1.49 0 0 0-.128-2.093z"/><path d="M1.947 5.265h2.459v.443H2.473v1.15h1.852v.444H2.473V8.71h1.98v.443H1.946V5.265zM5.848 5.697v1.461h.662q.367 0 .567-.19.2-.19.2-.541 0-.35-.2-.54-.2-.19-.567-.19h-.662zm-.526-.432H6.51q.653 0 .987.297.335.294.335.865 0 .575-.335.87-.334.294-.987.294h-.662v1.562h-.526V5.265z"/></svg>
